<svg version="1.1" xmlns="http://www.w3.org/2000/svg" viewBox="-3967.844040330762 -1024.000048828125 8589.156440385694 2402.3041015625"><desc>Created with Snap</desc><defs></defs><g><g><g transform="matrix(1.024,0,0,-1.024,0,0)"><path d="M714 362Q714 156 598 75Q491 0 304 0L21 0L21 19L87 19L87 681L21 681L21 700L330 700Q522 700 618 621Q714 543 714 362ZM282 681L282 19L320 19Q421 19 464 90Q508 162 508 330L508 388Q508 613 422 659Q381 681 306 681L282 681ZM1028 -10Q899 -10 834 56Q770 123 770 241Q770 360 842 423Q915 486 1027 486Q1254 486 1245 258L963 258L963 219Q963 121 988 71Q1013 21 1075 21Q1191 21 1227 145L1245 142Q1226 70 1176 30Q1127 -10 1028 -10ZM964 327L964 278L1067 278L1067 327Q1067 408 1057 437Q1048 467 1019 467Q991 467 977 435Q964 404 964 327ZM1281 458L1281 476L1522 476L1522 384Q1555 486 1667 486Q1780 486 1804 378Q1839 486 1951 486Q2098 486 2098 319L2098 18L2154 18L2154 0L1877 0L1877 18L1912 18L1912 343Q1912 419 1899 432Q1893 438 1883 438Q1854 438 1832 399Q1810 360 1810 300L1810 18L1846 18L1846 0L1589 0L1589 18L1624 18L1624 343Q1624 419 1611 432Q1605 438 1595 438Q1567 438 1544 395Q1522 353 1522 294L1522 18L1558 18L1558 0L1281 0L1281 18L1336 18L1336 458L1281 458ZM2492 197L2492 282Q2492 379 2481 423Q2471 468 2433 468Q2411 468 2397 455Q2384 443 2378 414Q2369 369 2369 277L2369 199Q2369 90 2375 68Q2382 46 2389 32Q2400 8 2432 8Q2471 8 2483 53Q2492 85 2492 197ZM2430 -10Q2305 -10 2241 54Q2177 118 2177 237Q2177 357 2245 421Q2314 486 2438 486Q2562 486 2623 426Q2684 367 2684 245Q2684 -10 2430 -10Z" fill="#143d59" style=""></path></g></g><g transform="matrix(1,0,0,1,6.144,815.104)"><g transform="matrix(1.024,0,0,-1.024,0,0)"><path d="M290 468Q246 468 227 420Q208 372 208 261L208 209Q208 110 230 67Q252 24 311 24Q370 24 405 64Q440 104 450 155L468 153Q449 67 398 29Q346 -10 255 -10Q139 -10 77 52Q15 115 15 235Q15 356 85 421Q156 486 282 486Q371 486 418 451Q465 417 465 365Q465 313 442 289Q420 265 380 265Q341 265 317 286Q293 307 293 348Q293 366 298 384L331 384Q338 404 338 420Q338 468 290 468ZM816 197L816 282Q816 379 805 423Q795 468 757 468Q735 468 721 455Q708 443 702 414Q693 369 693 277L693 199Q693 90 699 68Q706 46 713 32Q724 8 756 8Q795 8 807 53Q816 85 816 197ZM754 -10Q629 -10 565 54Q501 118 501 237Q501 357 569 421Q638 486 762 486Q886 486 947 426Q1008 367 1008 245Q1008 -10 754 -10ZM1036 458L1036 476L1277 476L1277 384Q1310 486 1422 486Q1535 486 1559 378Q1594 486 1706 486Q1853 486 1853 319L1853 18L1909 18L1909 0L1632 0L1632 18L1667 18L1667 343Q1667 419 1654 432Q1648 438 1638 438Q1609 438 1587 399Q1565 360 1565 300L1565 18L1601 18L1601 0L1344 0L1344 18L1379 18L1379 343Q1379 419 1366 432Q1360 438 1350 438Q1322 438 1299 395Q1277 353 1277 294L1277 18L1313 18L1313 0L1036 0L1036 18L1091 18L1091 458L1036 458ZM2289 269Q2289 372 2279 407Q2269 443 2240 443Q2211 443 2188 405Q2165 368 2165 305L2165 122Q2165 79 2182 49Q2199 19 2232 19Q2265 19 2277 63Q2289 107 2289 217L2289 269ZM1926 476L2163 476L2163 397Q2202 486 2301 486Q2387 486 2434 424Q2482 362 2482 236Q2482 110 2430 50Q2379 -10 2276 -10Q2228 -10 2204 2Q2180 14 2165 39L2165 -220L2294 -220L2294 -238L1924 -238L1924 -220L1979 -220L1979 458L1926 458L1926 476ZM2752 235L2781 235L2781 312Q2781 407 2770 439Q2760 472 2730 472Q2712 472 2697 462Q2683 453 2683 436Q2683 420 2689 403L2714 403Q2722 382 2722 352Q2722 323 2697 301Q2672 280 2634 280Q2548 280 2548 363Q2548 486 2757 486Q2876 486 2921 445Q2967 405 2967 297L2967 94Q2967 42 2996 42Q3030 42 3036 145L3051 144Q3047 56 3018 23Q2989 -10 2923 -10Q2803 -10 2785 64Q2772 26 2746 8Q2720 -10 2670 -10Q2522 -10 2522 111Q2522 182 2578 208Q2635 235 2752 235ZM2712 112Q2712 60 2717 45Q2723 30 2738 30Q2754 30 2767 55Q2781 81 2781 126L2781 219L2774 219Q2712 219 2712 128L2712 112ZM3063 458L3063 476L3304 476L3304 384Q3320 430 3353 458Q3386 486 3453 486Q3608 486 3608 319L3608 18L3664 18L3664 0L3381 0L3381 18L3422 18L3422 343Q3422 403 3414 420Q3406 438 3385 438Q3353 438 3328 396Q3304 354 3304 294L3304 18L3347 18L3347 0L3063 0L3063 18L3118 18L3118 458L3063 458ZM3713 458L3672 458L3672 476L3962 476L3962 458L3908 458L4017 126L4133 458L4066 458L4066 476L4207 476L4207 458L4157 458L3970 -81Q3937 -175 3896 -213Q3855 -250 3796 -250Q3737 -250 3703 -223Q3669 -196 3669 -154Q3669 -112 3691 -90Q3713 -68 3749 -68Q3832 -68 3832 -137Q3832 -152 3826 -173L3791 -173Q3783 -196 3789 -211Q3795 -226 3816 -226Q3857 -226 3889 -186Q3921 -145 3950 -62L3972 0L3884 0L3713 458Z" fill="#143d59" style=""></path></g></g><g transform="matrix(2.4216,0,0,2.4216,-3712.7189,1046.3065)"><g transform="matrix(1.024,0,0,-1.024,0,0)"><path d="M714 362Q714 156 598 75Q491 0 304 0L21 0L21 19L87 19L87 681L21 681L21 700L330 700Q522 700 618 621Q714 543 714 362ZM282 681L282 19L320 19Q421 19 464 90Q508 162 508 330L508 388Q508 613 422 659Q381 681 306 681L282 681ZM1155 691Q1000 691 1000 392L1000 313Q1000 171 1041 90Q1082 10 1162 10Q1272 10 1364 224L1382 224L1375 1L1364 1Q1358 12 1353 16Q1348 21 1338 21Q1329 21 1266 5Q1203 -10 1138 -10Q975 -10 885 78Q796 166 796 342Q796 519 889 615Q983 711 1141 711Q1202 711 1260 695Q1319 680 1329 680Q1339 680 1344 684Q1349 689 1355 700L1366 700L1374 483L1356 483Q1311 584 1263 637Q1216 691 1155 691Z" fill="#143d59" style=""></path></g></g></g></svg>